<?xml version="1.0" encoding="UTF-8"?>
<svg version="1.1" xmlns="http://www.w3.org/2000/svg" width="450" height="450">
<path d="M0 0 C148.5 0 297 0 450 0 C450 148.5 450 297 450 450 C301.5 450 153 450 0 450 C0 301.5 0 153 0 0 Z " fill="#FEFEFE" transform="translate(0,0)"/>
<path d="M0 0 C0.77251602 0.00359528 1.54503204 0.00719055 2.34095764 0.01089478 C3.55549622 0.01067574 3.55549622 0.01067574 4.79457092 0.01045227 C7.48380671 0.01115163 10.17297412 0.01894507 12.86219788 0.02676392 C14.72164878 0.02862802 16.58110018 0.03005196 18.44055176 0.03105164 C23.34458258 0.03487746 28.24858398 0.04470829 33.15260315 0.05575562 C38.15280255 0.06596836 43.15300669 0.07054896 48.1532135 0.07559204 C57.97158583 0.0863305 67.78993629 0.10340769 77.60829163 0.12442017 C76.57327874 5.44551153 75.52944209 10.74076237 74.12782288 15.97988892 C73.85478333 17.00139038 73.58174377 18.02289185 73.3004303 19.0753479 C73.01014954 20.14341675 72.71986877 21.2114856 72.42079163 22.31192017 C72.11181946 23.45411011 71.80284729 24.59630005 71.48451233 25.77310181 C69.28427474 33.82984593 66.91828021 41.82315953 64.44764709 49.80044556 C61.68918179 58.74835988 59.10890249 67.74406604 56.54579163 76.74942017 C56.22117447 77.88977219 56.22117447 77.88977219 55.88999939 79.05316162 C54.83691847 82.7542709 53.78530449 86.45579432 52.73475647 90.15762329 C51.28268173 95.27348574 49.82094404 100.38657357 48.35829163 105.49942017 C47.89340338 107.12701162 47.42855856 108.75461549 46.96376038 110.38223267 C46.03067253 113.64837795 45.09546288 116.91390763 44.15907288 120.17910767 C41.13876139 130.71836321 38.1611382 141.26880692 35.21400452 151.82876587 C33.37385967 158.414894 31.50189916 164.99099432 29.60829163 171.56192017 C26.96773496 180.7277243 24.48644795 189.93385003 22.05555725 199.15737915 C21.78034241 200.19322144 21.50512756 201.22906372 21.22157288 202.29629517 C20.98221008 203.20476196 20.74284729 204.11322876 20.49623108 205.04922485 C19.32318731 209.11182022 17.94547945 213.11285669 16.60829163 217.12442017 C30.13829163 217.12442017 43.66829163 217.12442017 57.60829163 217.12442017 C54.06807748 227.15502692 50.54577499 237.04442442 46.54579163 246.87442017 C45.51737663 249.42347417 44.48993791 251.97290365 43.46376038 254.52285767 C43.17949188 255.22846832 42.89522339 255.93407898 42.6023407 256.66107178 C37.80425218 268.58717497 33.08999604 280.54687405 28.35829163 292.49942017 C27.39469699 294.93269965 26.43107449 297.36596809 25.46742249 299.79922485 C23.18052463 305.57408381 20.89417244 311.34915856 18.60829163 317.12442017 C21.99041445 312.66055812 25.31822802 308.18323848 28.45594788 303.54238892 C29.13705627 302.53748413 29.81816467 301.53257935 30.51991272 300.4972229 C31.22970276 299.446073 31.9394928 298.3949231 32.67079163 297.31192017 C33.8042749 295.63833499 34.93848917 293.96524669 36.07270813 292.29216003 C36.83217365 291.17174019 37.59141109 290.05116569 38.35041809 288.93043518 C41.71384804 283.96451775 45.09452111 279.01056814 48.48329163 274.06192017 C49.01011536 273.29234985 49.53693909 272.52277954 50.07972717 271.72988892 C53.8171618 266.27319926 57.5651181 260.82378675 61.3160553 255.37637329 C63.9093948 251.60660195 66.49194204 247.82972305 69.06532288 244.04629517 C75.50646849 234.5764352 81.98269028 225.13526575 88.54579163 215.74942017 C94.92644064 206.61997878 101.14980689 197.39380976 107.29359436 188.10342407 C107.91693665 187.16160278 108.54027893 186.21978149 109.18251038 185.24942017 C109.72480286 184.42699829 110.26709534 183.60457642 110.82582092 182.75723267 C113.02739286 179.50538337 115.32576081 176.3199633 117.60829163 173.12442017 C103.74829163 173.12442017 89.88829163 173.12442017 75.60829163 173.12442017 C77.50527717 166.80113501 79.39673365 160.80169132 81.87391663 154.73379517 C82.18438431 153.96246246 82.49485199 153.19112976 82.81472778 152.39642334 C83.82535084 149.8874962 84.84182316 147.38098404 85.85829163 144.87442017 C87.29648424 141.31011868 88.73166939 137.74460859 90.16688538 134.17910767 C90.53279282 133.27125519 90.89870026 132.36340271 91.2756958 131.42803955 C93.8437942 125.04899083 96.37911269 118.6576506 98.89344788 112.25723267 C99.23489838 111.38848511 99.57634888 110.51973755 99.92814636 109.62466431 C101.24896588 106.2622756 102.56895943 102.89957733 103.88404846 99.53494263 C104.78590118 97.22791302 105.6910028 94.9221801 106.59657288 92.61660767 C106.98934166 91.60668259 106.98934166 91.60668259 107.39004517 90.57635498 C108.93655693 86.64714249 110.66588482 82.87330507 112.60829163 79.12442017 C129.55366434 77.94218486 150.19020957 86.87613068 163.25282288 97.21817017 C165.79928958 99.43997215 168.21686865 101.73693693 170.60829163 104.12442017 C171.76651428 105.26524048 171.76651428 105.26524048 172.94813538 106.42910767 C189.9911224 124.20042747 194.05744366 145.39350207 193.81532288 169.24160767 C193.19517398 197.29668703 181.54887605 225.68694217 163.60829163 247.12442017 C162.73531229 248.19816478 161.86294167 249.2724045 160.99110413 250.34707642 C151.52532932 261.89136421 141.16070893 271.92828874 129.23377991 280.89590454 C127.81254804 281.97004674 126.4099134 283.06870617 125.01063538 284.17129517 C90.74880905 310.45136481 45.07339776 323.82234152 2.15126038 319.78067017 C-1.06857882 319.34702179 -4.21384128 318.79592102 -7.39170837 318.12442017 C-8.35979431 317.95297485 -9.32788025 317.78152954 -10.32530212 317.60488892 C-28.52955159 313.85766625 -45.66782255 302.60012327 -56.26280212 287.44863892 C-61.29444685 279.45211105 -64.03456923 271.19388132 -66.39170837 262.12442017 C-66.63920837 261.1743811 -66.88670837 260.22434204 -67.14170837 259.24551392 C-70.50644971 243.19289378 -68.94394979 225.98559116 -65.39170837 210.12442017 C-65.18674744 209.09317017 -64.9817865 208.06192017 -64.77061462 206.99942017 C-63.09625883 199.01243106 -60.64257188 191.27535144 -58.22740173 183.4894104 C-55.56761012 174.85743693 -53.18488088 166.16426397 -50.87705994 157.43228149 C-49.49780191 152.21597422 -48.08695385 147.01254305 -46.59898376 141.82608032 C-46.24686325 140.59709518 -45.89474274 139.36811005 -45.5319519 138.10188293 C-45.34580763 137.45277136 -45.15966335 136.80365978 -44.96787834 136.13487816 C-43.98077886 132.69054375 -42.99725881 129.2451872 -42.01329041 125.79995728 C-41.58826833 124.31231725 -41.16322927 122.82468206 -40.73817444 121.33705139 C-40.52027378 120.57439909 -40.30237312 119.81174679 -40.07786942 119.02598381 C-37.39325714 109.62984085 -34.70864487 100.23369789 -32.02403259 90.83755493 C-31.65669463 89.55187087 -31.65669463 89.55187087 -31.28193569 88.24021339 C-30.79188928 86.52505254 -30.3018412 84.80989217 -29.81179142 83.09473228 C-28.61796766 78.91637655 -27.4241716 74.73801291 -26.23043823 70.55963135 C-24.33633122 63.92984502 -22.44219171 57.30006866 -20.54624939 50.67080688 C-18.46671042 43.39875137 -16.38989165 36.12601616 -14.3311615 28.84803772 C-13.46280096 25.77876561 -12.59232142 22.71009672 -11.72154236 19.64151001 C-11.28326301 18.09462211 -10.84613789 16.54740682 -10.41001892 14.99990845 C-9.76502734 12.71241367 -9.11590906 10.42612617 -8.46592712 8.14004517 C-8.27117294 7.44550232 -8.07641876 6.75095947 -7.87576294 6.03536987 C-6.24825437 0.33738978 -5.97040652 0.01172892 0 0 Z " fill="#F0642B" transform="translate(162.39170837402344,65.87557983398438)"/>
<path d="M0 0 C0.77251602 0.00359528 1.54503204 0.00719055 2.34095764 0.01089478 C3.55549622 0.01067574 3.55549622 0.01067574 4.79457092 0.01045227 C7.48380671 0.01115163 10.17297412 0.01894507 12.86219788 0.02676392 C14.72164878 0.02862802 16.58110018 0.03005196 18.44055176 0.03105164 C23.34458258 0.03487746 28.24858398 0.04470829 33.15260315 0.05575562 C38.15280255 0.06596836 43.15300669 0.07054896 48.1532135 0.07559204 C57.97158583 0.0863305 67.78993629 0.10340769 77.60829163 0.12442017 C76.57327874 5.44551153 75.52944209 10.74076237 74.12782288 15.97988892 C73.85478333 17.00139038 73.58174377 18.02289185 73.3004303 19.0753479 C73.01014954 20.14341675 72.71986877 21.2114856 72.42079163 22.31192017 C72.11181946 23.45411011 71.80284729 24.59630005 71.48451233 25.77310181 C69.28427474 33.82984593 66.91828021 41.82315953 64.44764709 49.80044556 C61.68918179 58.74835988 59.10890249 67.74406604 56.54579163 76.74942017 C56.22117447 77.88977219 56.22117447 77.88977219 55.88999939 79.05316162 C54.83691847 82.7542709 53.78530449 86.45579432 52.73475647 90.15762329 C51.28268173 95.27348574 49.82094404 100.38657357 48.35829163 105.49942017 C47.89340338 107.12701162 47.42855856 108.75461549 46.96376038 110.38223267 C46.03067253 113.64837795 45.09546288 116.91390763 44.15907288 120.17910767 C43.914151 121.03415894 43.66922913 121.88921021 43.41688538 122.77017212 C42.92409505 124.49026193 42.43061857 126.21015532 41.93641663 127.92984009 C40.50640366 132.92225119 39.11178897 137.9228964 37.74501038 142.93301392 C37.43104309 144.07673462 37.11707581 145.22045532 36.79359436 146.39883423 C36.17940049 148.64013683 35.57066133 150.88294276 34.96791077 153.12734985 C34.6893927 154.14087524 34.41087463 155.15440063 34.12391663 156.19863892 C33.75701721 157.55348389 33.75701721 157.55348389 33.38270569 158.93569946 C32.60829163 161.12442017 32.60829163 161.12442017 30.60829163 163.12442017 C26.49205028 163.12442017 23.48747519 162.44187873 19.60829163 161.12442017 C19.27829163 160.46442017 18.94829163 159.80442017 18.60829163 159.12442017 C17.98180725 159.15922485 17.35532288 159.19402954 16.70985413 159.22988892 C15.8925885 159.25695923 15.07532288 159.28402954 14.23329163 159.31192017 C13.42118225 159.34672485 12.60907288 159.38152954 11.77235413 159.41738892 C11.0582135 159.32070923 10.34407288 159.22402954 9.60829163 159.12442017 C8.94829163 158.13442017 8.28829163 157.14442017 7.60829163 156.12442017 C3.92914359 155.46096724 0.75726313 155.01232539 -2.95420837 155.37442017 C-6.83677642 154.97620806 -9.41753907 152.52432623 -12.39170837 150.12442017 C-12.72170837 151.11442017 -13.05170837 152.10442017 -13.39170837 153.12442017 C-14.05170837 152.79442017 -14.71170837 152.46442017 -15.39170837 152.12442017 C-15.39170837 151.46442017 -15.39170837 150.80442017 -15.39170837 150.12442017 C-16.54799744 149.81697876 -16.54799744 149.81697876 -17.72764587 149.50332642 C-19.23198181 149.09920532 -19.23198181 149.09920532 -20.76670837 148.68692017 C-21.76444275 148.42008423 -22.76217712 148.15324829 -23.79014587 147.87832642 C-26.39170837 147.12442017 -26.39170837 147.12442017 -28.39170837 146.12442017 C-28.72170837 146.78442017 -29.05170837 147.44442017 -29.39170837 148.12442017 C-32.45420837 148.74942017 -32.45420837 148.74942017 -35.39170837 149.12442017 C-35.39170837 148.46442017 -35.39170837 147.80442017 -35.39170837 147.12442017 C-38.50942764 145.52102168 -39.78182526 144.93467875 -43.20420837 145.99942017 C-43.92608337 146.37067017 -44.64795837 146.74192017 -45.39170837 147.12442017 C-45.68924269 140.63421749 -44.64985842 135.21531121 -42.92295837 128.97598267 C-42.65688782 127.98683868 -42.39081726 126.9976947 -42.11668396 125.97857666 C-38.53439924 112.77441385 -34.7064576 99.63781119 -30.89170837 86.49942017 C-30.15022898 83.93969585 -29.4096524 81.37971162 -28.66905212 78.81973267 C-27.58347383 75.06749329 -26.49775056 71.315297 -25.41104126 67.56338501 C-21.67525277 54.66277036 -17.98176491 41.75036519 -14.32539368 28.82702637 C-13.45879932 25.76480252 -12.59033872 22.70310976 -11.72154236 19.64151001 C-11.28326301 18.09462211 -10.84613789 16.54740682 -10.41001892 14.99990845 C-9.76502734 12.71241367 -9.11590906 10.42612617 -8.46592712 8.14004517 C-8.27117294 7.44550232 -8.07641876 6.75095947 -7.87576294 6.03536987 C-6.24825437 0.33738978 -5.97040652 0.01172892 0 0 Z M10.60829163 152.12442017 C10.27829163 153.77442017 9.94829163 155.42442017 9.60829163 157.12442017 C11.58829163 156.79442017 13.56829163 156.46442017 15.60829163 156.12442017 C13.95829163 154.80442017 12.30829163 153.48442017 10.60829163 152.12442017 Z " fill="#EF702A" transform="translate(162.39170837402344,65.87557983398438)"/>
<path d="M0 0 C0.99 0 1.98 0 3 0 C2.79503906 0.74765625 2.59007812 1.4953125 2.37890625 2.265625 C2.10949219 3.25046875 1.84007812 4.2353125 1.5625 5.25 C1.29566406 6.22453125 1.02882812 7.1990625 0.75390625 8.203125 C0.14455416 10.46372653 -0.44238255 12.72622009 -1 15 C-1.99 15 -2.98 15 -4 15 C-4 13.02 -4 11.04 -4 9 C-2.68 8.67 -1.36 8.34 0 8 C0 7.34 0 6.68 0 6 C-0.99 6 -1.98 6 -3 6 C-2 4 -1 2 0 0 Z " fill="#F16630" transform="translate(181,265)"/>
<path d="M0 0 C0.99 1.32 1.98 2.64 3 4 C-2.0022779 13.59453303 -2.0022779 13.59453303 -6 17 C-4.13236819 11.27789404 -2.14710968 5.62338249 0 0 Z " fill="#FDEAE3" transform="translate(186,368)"/>
<path d="M0 0 C2.32044827 3.4806724 2.15775787 4.07452771 1.375 8 C1.21773438 8.86625 1.06046875 9.7325 0.8984375 10.625 C-0.18172708 13.48039158 -1.44329826 14.41380137 -4 16 C-3.39891424 10.34979382 -1.92471317 5.33835539 0 0 Z " fill="#F16E3C" transform="translate(103,254)"/>
<path d="M0 0 C2.55263088 2.274694 3.84144815 4.43202693 5.1875 7.5625 C5.53167969 8.34753906 5.87585938 9.13257813 6.23046875 9.94140625 C7 12 7 12 7 14 C6.01 14 5.02 14 4 14 C2.74335022 11.09399739 2 9.20395416 2 6 C1.01 5.67 0.02 5.34 -1 5 C-0.67 3.35 -0.34 1.7 0 0 Z " fill="#F17A39" transform="translate(344,185)"/>
<path d="M0 0 C0.66 0 1.32 0 2 0 C2 0.66 2 1.32 2 2 C2.66 2 3.32 2 4 2 C3.67 4.31 3.34 6.62 3 9 C2.01 8.67 1.02 8.34 0 8 C-0.99 8.66 -1.98 9.32 -3 10 C-2.69201674 8.51988629 -2.378482 7.04092675 -2.0625 5.5625 C-1.88847656 4.73878906 -1.71445313 3.91507812 -1.53515625 3.06640625 C-1 1 -1 1 0 0 Z " fill="#F08037" transform="translate(154,76)"/>
<path d="M0 0 C2.0625 1.6875 2.0625 1.6875 4 4 C3.75 6.75 3.75 6.75 3 9 C1.35 9.33 -0.3 9.66 -2 10 C-1.34 6.7 -0.68 3.4 0 0 Z " fill="#F07E39" transform="translate(147,98)"/>
<path d="M0 0 C0.66 0.66 1.32 1.32 2 2 C0.25 6.875 0.25 6.875 -2 8 C-2.33 8.99 -2.66 9.98 -3 11 C-3.66 11 -4.32 11 -5 11 C-4.55123384 9.35153231 -4.09069512 7.70626545 -3.625 6.0625 C-3.36976563 5.14597656 -3.11453125 4.22945312 -2.8515625 3.28515625 C-2 1 -2 1 0 0 Z " fill="#F07938" transform="translate(266,170)"/>
<path d="M0 0 C2.475 0.495 2.475 0.495 5 1 C5 2.32 5 3.64 5 5 C5.99 5.33 6.98 5.66 8 6 C5.36 5.67 2.72 5.34 0 5 C0 3.35 0 1.7 0 0 Z " fill="#F1673A" transform="translate(146,377)"/>
<path d="M0 0 C-0.59950296 3.68266103 -1.24758891 7.34543185 -2 11 C-3.88391785 7.73454239 -4.49287967 4.71888239 -5 1 C-3 0 -3 0 0 0 Z " fill="#F17339" transform="translate(199,210)"/>
<path d="M0 0 C2.5654594 2.5654594 2.54046087 4.47686668 3 8 C2.34 8 1.68 8 1 8 C0.67 8.66 0.34 9.32 0 10 C-0.66 9.67 -1.32 9.34 -2 9 C-1.34 6.03 -0.68 3.06 0 0 Z " fill="#F1753E" transform="translate(120,193)"/>
<path d="M0 0 C1.5625 1.8125 1.5625 1.8125 3 4 C2.67 4.99 2.34 5.98 2 7 C2 6.34 2 5.68 2 5 C1.01 5 0.02 5 -1 5 C-1.33 5.99 -1.66 6.98 -2 8 C-2.66 8 -3.32 8 -4 8 C-2.87548273 5.0280615 -1.77706209 2.66559313 0 0 Z " fill="#F16D3B" transform="translate(240,297)"/>
<path d="M0 0 C0.99 0 1.98 0 3 0 C2.34 2.97 1.68 5.94 1 9 C0.67 8.01 0.34 7.02 0 6 C-0.99 6 -1.98 6 -3 6 C-2 4 -1 2 0 0 Z " fill="#F27340" transform="translate(181,265)"/>
<path d="M0 0 C1.485 0.99 1.485 0.99 3 2 C3.1875 4.625 3.1875 4.625 3 7 C1.68 6.67 0.36 6.34 -1 6 C-0.67 4.02 -0.34 2.04 0 0 Z " fill="#F2773F" transform="translate(125,175)"/>
<path d="M0 0 C0.99 0.33 1.98 0.66 3 1 C2.67 2.32 2.34 3.64 2 5 C1.01 5 0.02 5 -1 5 C-1.66 4.01 -2.32 3.02 -3 2 C-2.01 2 -1.02 2 0 2 C0 1.34 0 0.68 0 0 Z " fill="#F06B38" transform="translate(316,318)"/>
<path d="M0 0 C1.65 1.65 3.3 3.3 5 5 C3.68 5.33 2.36 5.66 1 6 C0.4465236 3.92446352 0 2.15634036 0 0 Z M-1 6 C1 7 1 7 1 7 Z " fill="#EF7C36" transform="translate(325,163)"/>
</svg>
