<?xml version="1.0" encoding="UTF-8"?>
<svg version="1.1" xmlns="http://www.w3.org/2000/svg" width="512" height="512">
<path d="M0 0 C168.96 0 337.92 0 512 0 C512 168.96 512 337.92 512 512 C343.04 512 174.08 512 0 512 C0 343.04 0 174.08 0 0 Z " fill="#161C28" transform="translate(0,0)"/>
<path d="M0 0 C4.23939006 -0.07414903 8.46945487 0.00378088 12.70703125 0.1328125 C13.67286133 0.15746582 14.63869141 0.18211914 15.63378906 0.20751953 C18.90873034 0.29480475 22.18276498 0.39818629 25.45703125 0.5078125 C26.46330566 0.5385083 27.46958008 0.5692041 28.50634766 0.60083008 C51.48945433 1.50495457 83.17929118 4.79605864 101.70117188 19.58740234 C105.1248748 22.22518709 108.74205047 24.57906921 112.32861328 26.98803711 C116.05097878 29.49129916 119.74676105 32.03134401 123.43066406 34.59082031 C125.23498121 35.81304973 127.09916513 36.94682873 128.98046875 38.046875 C132.83021694 40.99209783 135.0892376 44.59483102 137.70703125 48.6328125 C138.84903685 50.34847133 139.99230855 52.06328794 141.13671875 53.77734375 C141.72291992 54.66115723 142.30912109 55.5449707 142.91308594 56.45556641 C145.81838392 60.79137175 148.82577909 65.05417529 151.83203125 69.3203125 C156.67975325 76.22083114 161.48925466 83.14559096 166.24462891 90.11010742 C167.93909867 92.58722318 169.58937797 94.9986335 171.5703125 97.2578125 C172.70703125 99.1328125 172.70703125 99.1328125 172.66015625 101.51953125 C171.43727859 104.87242124 169.68133409 107.15058361 167.45703125 109.9453125 C167.01738037 110.50226807 166.57772949 111.05922363 166.12475586 111.63305664 C164.66361046 113.47578959 163.1875569 115.30562029 161.70703125 117.1328125 C161.18963379 117.77250977 160.67223633 118.41220703 160.13916016 119.07128906 C157.96330789 121.75773956 155.78358668 124.44094721 153.59667969 127.1184082 C150.08482884 131.41975686 146.62371658 135.75557553 143.20703125 140.1328125 C138.12118114 146.64520432 132.91606727 153.05647938 127.6953125 159.4609375 C125.34981592 162.33893704 123.02101578 165.22937086 120.70703125 168.1328125 C117.85480573 171.71160495 114.97350649 175.26543968 112.08203125 178.8125 C106.94975673 185.1090405 101.87117658 191.44024093 96.87182617 197.84277344 C92.82901338 203.00741386 88.68975846 208.09059746 84.54296875 213.171875 C81.05173042 217.45732868 77.60884237 221.77610703 74.20703125 226.1328125 C69.72728781 231.87002778 65.15271258 237.52458067 60.54956055 243.16308594 C56.98955894 247.53177013 53.48550161 251.93926076 50.01953125 256.3828125 C45.86232109 261.71073127 41.57338902 266.91081805 37.2265625 272.0859375 C34.56008104 275.31051973 31.96837087 278.58429959 29.39453125 281.8828125 C25.26226135 287.17853703 21.07048175 292.42163249 16.83203125 297.6328125 C16.29666748 298.29120117 15.76130371 298.94958984 15.2097168 299.62792969 C12.06726032 303.48420015 8.8985842 307.3170813 5.70703125 311.1328125 C2.09694072 310.89343374 0.83058095 310.25347553 -1.80078125 307.68359375 C-2.68628241 306.61489126 -3.55792502 305.53460682 -4.41796875 304.4453125 C-4.89314941 303.86370361 -5.36833008 303.28209473 -5.85791016 302.68286133 C-7.35177472 300.8446942 -8.82503714 298.99173523 -10.29296875 297.1328125 C-10.74478516 296.56272461 -11.19660156 295.99263672 -11.66210938 295.40527344 C-13.45765373 293.13521113 -15.24704677 290.86057895 -17.02587891 288.57739258 C-20.55596967 284.04679813 -24.16024968 279.58141068 -27.79296875 275.1328125 C-31.8251704 270.1934689 -35.81107894 265.22461801 -39.73046875 260.1953125 C-43.83234798 254.9352556 -48.03874913 249.77030887 -52.29296875 244.6328125 C-57.00594307 238.9413131 -61.63749719 233.19956804 -66.1796875 227.37109375 C-69.66150852 222.91191946 -73.21544947 218.51547019 -76.79296875 214.1328125 C-81.30064089 208.60947593 -85.74139642 203.04096653 -90.12890625 197.421875 C-93.63073122 192.94844542 -97.20108039 188.53414048 -100.79296875 184.1328125 C-104.84272565 179.17043433 -108.85096368 174.1812315 -112.79296875 169.1328125 C-117.8789472 162.62051833 -123.08393014 156.2091488 -128.3046875 149.8046875 C-131.28009673 146.15376493 -134.22232487 142.47728983 -137.15625 138.79296875 C-138.83074379 136.7082699 -140.51610963 134.63449657 -142.2109375 132.56640625 C-144.99792711 129.1649256 -147.76801045 125.75032804 -150.52587891 122.32519531 C-151.73560043 120.824325 -152.94900095 119.32641464 -154.16552734 117.83105469 C-156.01569263 115.54811618 -157.84394817 113.24916732 -159.66796875 110.9453125 C-160.24571045 110.23882568 -160.82345215 109.53233887 -161.41870117 108.80444336 C-161.94181885 108.13550049 -162.46493652 107.46655762 -163.00390625 106.77734375 C-163.47103027 106.19315674 -163.9381543 105.60896973 -164.41943359 105.00708008 C-165.6565308 102.35274937 -165.1634563 100.88655355 -164.29296875 98.1328125 C-163.20825195 96.13842773 -163.20825195 96.13842773 -161.84375 94.19140625 C-161.07708008 93.08442383 -161.07708008 93.08442383 -160.29492188 91.95507812 C-159.73740234 91.16810547 -159.17988281 90.38113281 -158.60546875 89.5703125 C-157.73631836 88.32217773 -157.73631836 88.32217773 -156.84960938 87.04882812 C-155.00545226 84.40441378 -153.14989233 81.76827353 -151.29296875 79.1328125 C-149.53829285 76.62840706 -147.78548702 74.12270529 -146.03344727 71.61645508 C-144.86984853 69.95601323 -143.70233988 68.29830473 -142.53100586 66.64331055 C-139.57646168 62.45862767 -136.69924504 58.24700883 -133.94140625 53.9296875 C-133.39097656 53.08277344 -132.84054688 52.23585937 -132.2734375 51.36328125 C-131.24840037 49.77958642 -130.24118467 48.18411613 -129.2578125 46.57421875 C-125.57189549 40.93047048 -121.26542297 37.81042061 -115.58203125 34.25830078 C-112.73249242 32.41684554 -110.10350668 30.49065879 -107.44842529 28.39161682 C-75.55492177 3.1894439 -39.31308693 0.9865463 0 0 Z " fill="#7CC5FE" transform="translate(252.29296875,112.8671875)"/>
<path d="M0 0 C1.010625 0.845625 2.02125 1.69125 3.0625 2.5625 C3.71613525 3.10793457 4.36977051 3.65336914 5.04321289 4.21533203 C7 6 7 6 8.42358398 7.81201172 C14.07012614 14.85376121 22.68669163 15.5115974 31.0625 17.125 C32.6818675 17.45695198 34.30068403 17.79160278 35.91894531 18.12890625 C39.12296701 18.794304 42.32905772 19.44757704 45.53759766 20.09082031 C51.46616464 21.28718563 57.35860668 22.63369067 63.25 24 C64.98426297 24.3963239 66.71862415 24.79221848 68.453125 25.1875 C69.62359375 25.455625 70.7940625 25.72375 72 26 C72 26.99 72 27.98 72 29 C69.58268932 30.92772877 67.18667608 32.65756325 64.625 34.375 C63.05392355 35.4546183 61.48363594 36.53538525 59.9140625 37.6171875 C59.09969727 38.1750293 58.28533203 38.73287109 57.44628906 39.30761719 C53.58671162 41.97773603 49.79478129 44.7389494 46 47.5 C34.09219554 56.13011855 22.06019104 64.584535 10 73 C16.47255395 75.6323784 22.93435945 77.25131333 29.75 78.75 C32.04859299 79.27030141 34.34675519 79.79250884 36.64453125 80.31640625 C37.83900879 80.58855957 39.03348633 80.86071289 40.26416016 81.14111328 C46.66623697 82.61298011 53.05475594 84.13368572 59.4375 85.6875 C61.24976074 86.11530762 61.24976074 86.11530762 63.09863281 86.55175781 C64.21979492 86.82729492 65.34095703 87.10283203 66.49609375 87.38671875 C67.48794678 87.62608154 68.4797998 87.86544434 69.50170898 88.11206055 C72.21423354 89.07614261 73.18559802 89.81193811 75 92 C75.78268433 94.06190491 75.78268433 94.06190491 76.36279297 96.46118164 C76.69861893 97.81518822 76.69861893 97.81518822 77.04122925 99.19654846 C77.27254547 100.17453903 77.50386169 101.1525296 77.7421875 102.16015625 C78.11756149 103.68786903 78.11756149 103.68786903 78.5005188 105.2464447 C79.30203329 108.51611321 80.08910131 111.78904643 80.875 115.0625 C81.90974509 119.32527677 82.95030531 123.58661893 83.9921875 127.84765625 C84.24546814 128.88777863 84.49874878 129.927901 84.75970459 130.99954224 C86.494628 138.0792661 88.3500172 145.11494616 90.35812378 152.12208557 C91.71991922 156.8848585 92.89598582 161.67131598 94 166.5 C95.27022918 172.05357208 96.68058992 177.53828911 98.24609375 183.015625 C101.44099761 194.36244993 104.23880347 205.80636512 107.0625 217.25 C108.09217204 221.42259434 109.12452743 225.59450507 110.16015625 229.765625 C110.40448395 230.75373169 110.64881165 231.74183838 110.90054321 232.7598877 C112.54903757 239.36837764 114.37270041 245.88790155 116.43139648 252.38183594 C117.01134598 255.05224314 116.92529636 256.46251925 116 259 C102.75737823 243.04131621 102.75737823 243.04131621 96.5 235 C92.42091389 229.75881782 88.23633831 224.61483374 84 219.5 C79.28696152 213.80855537 74.65546999 208.06675353 70.11328125 202.23828125 C66.63146023 197.77910696 63.07751928 193.38265769 59.5 189 C54.99232786 183.47666343 50.55157233 177.90815403 46.1640625 172.2890625 C42.66223753 167.81563292 39.09188836 163.40132798 35.5 159 C30.99240027 153.47660315 26.55157358 147.90815564 22.1640625 142.2890625 C18.12433367 137.12848405 13.98855951 132.04903597 9.84472656 126.97192383 C6.26615682 122.57960734 2.73867933 118.15148256 -0.75 113.6875 C-5.41514042 107.72030544 -10.18754009 101.8492278 -15 96 C-18.77425351 91.41169181 -22.52791427 86.80781722 -26.24902344 82.17626953 C-27.45140995 80.68183655 -28.65802445 79.19079847 -29.86816406 77.70263672 C-31.71967548 75.41814912 -33.54941792 73.11773502 -35.375 70.8125 C-35.95282227 70.10593262 -36.53064453 69.39936523 -37.12597656 68.67138672 C-37.64901367 68.00252441 -38.17205078 67.33366211 -38.7109375 66.64453125 C-39.17806152 66.06034424 -39.64518555 65.47615723 -40.12646484 64.87426758 C-41.36356205 62.21993687 -40.87048755 60.75374105 -40 58 C-38.9152832 56.00561523 -38.9152832 56.00561523 -37.55078125 54.05859375 C-37.03966797 53.32060547 -36.52855469 52.58261719 -36.00195312 51.82226562 C-35.44443359 51.03529297 -34.88691406 50.24832031 -34.3125 49.4375 C-33.73306641 48.60541016 -33.15363281 47.77332031 -32.55664062 46.91601562 C-30.71248351 44.27160128 -28.85692358 41.63546103 -27 39 C-25.82619562 37.32465808 -24.65300746 35.64888423 -23.48046875 33.97265625 C-21.74336851 31.49000689 -20.00554333 29.00789509 -18.2644043 26.52807617 C-12.09760086 17.73923544 -6.04141765 8.87532548 0 0 Z " fill="#47A9F0" transform="translate(128,153)"/>
<path d="M0 0 C7.0597161 8.72185979 13.42344534 17.96955906 19.8125 27.1875 C20.50174561 28.17983643 21.19099121 29.17217285 21.90112305 30.19458008 C26.50205296 36.82383666 31.08606795 43.46463106 35.63793945 50.12768555 C37.29691915 52.55153454 38.91529999 54.90353114 40.85546875 57.11328125 C42 59 42 59 41.953125 61.38671875 C40.73024734 64.73960874 38.97430284 67.01777111 36.75 69.8125 C36.31034912 70.36945557 35.87069824 70.92641113 35.41772461 71.50024414 C33.95657921 73.34297709 32.48052565 75.17280779 31 77 C30.48260254 77.63969727 29.96520508 78.27939453 29.43212891 78.93847656 C27.25627664 81.62492706 25.07655543 84.30813471 22.88964844 86.9855957 C19.37779759 91.28694436 15.91668533 95.62276303 12.5 100 C7.41414989 106.51239182 2.20903602 112.92366688 -3.01171875 119.328125 C-5.35721533 122.20612454 -7.68601547 125.09655836 -10 128 C-12.85222552 131.57879245 -15.73352476 135.13262718 -18.625 138.6796875 C-23.75727452 144.976228 -28.83585467 151.30742843 -33.83520508 157.70996094 C-37.87801787 162.87460136 -42.01727279 167.95778496 -46.1640625 173.0390625 C-49.65530083 177.32451618 -53.09818888 181.64329453 -56.5 186 C-60.97974344 191.73721528 -65.55431867 197.39176817 -70.1574707 203.03027344 C-73.71747231 207.39895763 -77.22152964 211.80644826 -80.6875 216.25 C-84.83844994 221.56989561 -89.12049368 226.76249248 -93.4609375 231.9296875 C-97.18460926 236.43246597 -100.77511452 241.03575768 -104.37109375 245.640625 C-107.87378835 250.1259237 -111.43373828 254.56516451 -115 259 C-116.10055844 255.69832467 -115.90628414 254.76339876 -115.07543945 251.49121094 C-114.84802567 250.57885681 -114.62061188 249.66650269 -114.38630676 248.72650146 C-114.13120834 247.73909973 -113.87610992 246.751698 -113.61328125 245.734375 C-113.35500046 244.70878479 -113.09671967 243.68319458 -112.83061218 242.62652588 C-111.99892062 239.3323511 -111.15575761 236.04123083 -110.3125 232.75 C-109.76294068 230.5783099 -109.21410443 228.40643669 -108.66601562 226.234375 C-106.14729533 216.27737443 -103.58111676 206.33489798 -100.91430664 196.41650391 C-99.25749322 190.22546333 -97.66189105 184.01857677 -96.0625 177.8125 C-95.88980591 177.14323486 -95.71711182 176.47396973 -95.53918457 175.78442383 C-93.20324565 166.72990525 -90.90344109 157.66714478 -88.65258789 148.59106445 C-87.18099949 142.67406579 -85.61706178 136.7848633 -84.02734375 130.8984375 C-83.03425899 127.17606514 -82.11249627 123.43755316 -81.19750977 119.6953125 C-80.56582622 117.13846344 -79.90882445 114.58903433 -79.25 112.0390625 C-78.40321533 108.73481688 -77.68802361 105.43869014 -77.0625 102.0859375 C-76.72989507 100.55713302 -76.39659481 99.02847959 -76.0625 97.5 C-75.96074463 96.8002002 -75.85898926 96.10040039 -75.75415039 95.37939453 C-75.1888086 93.00089774 -74.67955366 91.79742679 -73 90 C-69.1133904 88.29432104 -65.13949999 87.34397771 -60.99923706 86.44360352 C-58.38678456 85.86393583 -55.8015885 85.18516055 -53.21315002 84.50732422 C-49.89900025 83.6439985 -46.57390174 82.82481417 -43.25 82 C-42.55632324 81.82702393 -41.86264648 81.65404785 -41.14794922 81.47583008 C-30.46867391 78.81400288 -19.7693182 76.27352273 -9 74 C-12.4715423 70.21690903 -16.42542248 67.46147993 -20.625 64.5625 C-22.16213183 63.49054845 -23.698568 62.4175988 -25.234375 61.34375 C-26.02392578 60.79203125 -26.81347656 60.2403125 -27.62695312 59.671875 C-31.40593122 57.00948385 -35.13837072 54.28383502 -38.875 51.5625 C-46.04708337 46.34321551 -53.33146447 41.30873694 -60.72021484 36.40063477 C-64.92975425 33.56905115 -68.55999143 30.73525881 -72 27 C-68.46328039 25.48397533 -65.06657656 24.48095449 -61.30078125 23.703125 C-60.18646729 23.47036865 -59.07215332 23.2376123 -57.92407227 22.99780273 C-56.73225342 22.75102783 -55.54043457 22.50425293 -54.3125 22.25 C-53.07749756 21.98324463 -51.84249512 21.71648926 -50.57006836 21.44165039 C-44.33753017 20.09565064 -38.10979384 18.82584563 -31.828125 17.73046875 C-17.59553067 15.09559074 -8.71217342 11.88664957 0 0 Z " fill="#47A9F0" transform="translate(383,153)"/>
<path d="M0 0 C35.64 0 71.28 0 108 0 C104.596375 17.018125 104.596375 17.018125 102.5625 23.875 C100.88306076 29.7202555 99.34986397 35.56996972 98 41.5 C96.48246749 48.15183797 94.71916392 54.70706522 92.85546875 61.26953125 C91.25011704 66.97197691 89.86418134 72.70412697 88.54933167 78.47953796 C87.3990527 83.46380338 86.08474883 88.38192295 84.68359375 93.30078125 C82.17991973 102.20679797 79.90827259 111.16181119 77.69119263 120.14285278 C76.61327614 124.50574343 75.52473718 128.86598706 74.4375 133.2265625 C74.2258168 134.07620071 74.01413361 134.92583893 73.79603577 135.80122375 C72.07011796 142.72645579 70.33734566 149.64960686 68.5625 156.5625 C68.34021729 157.44574951 68.11793457 158.32899902 67.88891602 159.23901367 C66.11618906 166.08524292 64.23634885 172.14203992 59.3125 177.4375 C58.68988281 178.11683594 58.06726563 178.79617188 57.42578125 179.49609375 C56.95527344 179.99238281 56.48476563 180.48867188 56 181 C51.6336157 180.51400244 49.76960453 179.33321249 46.9375 176 C42.06710944 169.59447695 40.90656801 162.85501664 39.43115234 155.12988281 C38.78580167 151.94186509 37.92647545 148.82239905 37.0625 145.6875 C35.25985115 139.03537228 33.57236072 132.35923071 31.92602539 125.66674805 C30.53866319 120.05738383 29.06748676 114.47301625 27.57200623 108.89152527 C25.69419665 101.87585274 23.87495422 94.84532039 22.0625 87.8125 C21.88980591 87.14323486 21.71711182 86.47396973 21.53918457 85.78442383 C19.20324565 76.72990525 16.90344109 67.66714478 14.65258789 58.59106445 C13.1816915 52.67684825 11.61747483 46.79063242 10.03125 40.90625 C8.57253282 35.43606056 7.22739234 29.93703926 5.86645508 24.44189453 C4.23107283 17.86095874 2.49360626 11.31266788 0.69921875 4.7734375 C0 2 0 2 0 0 Z " fill="#8CCBFB" transform="translate(202,243)"/>
<path d="M0 0 C35.64 0 71.28 0 108 0 C104.596375 17.018125 104.596375 17.018125 102.5625 23.875 C100.88306076 29.7202555 99.34986397 35.56996972 98 41.5 C96.48531621 48.13935112 94.73322029 54.68490889 92.86206055 61.23217773 C91.12673401 67.36652687 89.66037368 73.54569844 88.34375 79.78320312 C87.95634981 81.53661008 87.48574604 83.27125316 87 85 C86.01 85.495 86.01 85.495 85 86 C84.7568959 85.32666626 84.51379181 84.65333252 84.26332092 83.95959473 C81.92772178 77.49143649 79.59066691 71.02380575 77.25212955 64.55670929 C76.05104116 61.23501768 74.85044214 57.9131512 73.65112305 54.59082031 C72.25987819 50.73705895 70.86682749 46.88395359 69.47265625 43.03125 C69.24385395 42.39863251 69.01505165 41.76601501 68.77931595 41.11422729 C65.15321222 31.09524636 61.44492528 21.1088521 57.63722229 11.15734863 C57.28828415 10.23852905 56.93934601 9.31970947 56.57983398 8.37304688 C56.27319321 7.57217651 55.96655243 6.77130615 55.65061951 5.94616699 C55 4 55 4 55 2 C54.34 2 53.68 2 53 2 C52.82966248 2.59099487 52.65932495 3.18198975 52.48382568 3.79089355 C50.55168418 10.37516446 48.34797725 16.82914277 46.015625 23.28125 C45.63694275 24.33421265 45.2582605 25.38717529 44.86810303 26.4720459 C44.06928663 28.69113987 43.2691555 30.90976097 42.46777344 33.12792969 C41.26387806 36.46157102 40.06521866 39.79705989 38.8671875 43.1328125 C35.10044059 53.59526267 31.29156712 64.03260655 27.19390869 74.37072754 C25.67313527 78.21289103 24.26682677 82.06657164 23 86 C22.34 85.67 21.68 85.34 21 85 C20.30843278 82.76284209 19.72762234 80.49124164 19.1953125 78.2109375 C19.03006073 77.51545807 18.86480896 76.81997864 18.69454956 76.10342407 C18.1635346 73.86237789 17.64382291 71.61889706 17.125 69.375 C16.44345509 66.46535235 15.757398 63.55678123 15.0703125 60.6484375 C14.90021667 59.925495 14.73012085 59.20255249 14.55487061 58.45770264 C13.11756434 52.39086804 11.52941202 46.37221521 9.90185547 40.35400391 C8.70873335 35.91677821 7.59741293 31.46165921 6.5 27 C4.66002924 19.56401984 2.7262666 12.16054469 0.69921875 4.7734375 C0 2 0 2 0 0 Z " fill="#BEE1F7" transform="translate(202,243)"/>
<path d="M0 0 C1.010625 0.845625 2.02125 1.69125 3.0625 2.5625 C3.71613525 3.10793457 4.36977051 3.65336914 5.04321289 4.21533203 C7 6 7 6 8.42358398 7.81201172 C14.07012614 14.85376121 22.68669163 15.5115974 31.0625 17.125 C32.6818675 17.45695198 34.30068403 17.79160278 35.91894531 18.12890625 C39.12296701 18.794304 42.32905772 19.44757704 45.53759766 20.09082031 C51.46616464 21.28718563 57.35860668 22.63369067 63.25 24 C64.98426297 24.3963239 66.71862415 24.79221848 68.453125 25.1875 C69.62359375 25.455625 70.7940625 25.72375 72 26 C72 26.99 72 27.98 72 29 C69.58268932 30.92772877 67.18667608 32.65756325 64.625 34.375 C63.05392355 35.4546183 61.48363594 36.53538525 59.9140625 37.6171875 C59.09969727 38.1750293 58.28533203 38.73287109 57.44628906 39.30761719 C53.58671388 41.97773447 49.79472592 44.73887643 46 47.5 C41.50643151 50.75789811 37.00606862 54.00472677 32.47265625 57.20703125 C31.73934082 57.72523438 31.00602539 58.2434375 30.25048828 58.77734375 C28.80500298 59.7915383 27.3542131 60.79821897 25.89794922 61.796875 C22.76901383 63.95546749 19.93967688 66.0566722 17.16015625 68.66796875 C13.17715904 72.33183521 10.71992947 74.05650692 5.1953125 73.875 C1.09846399 73.18330622 -2.85986156 72.06489113 -6.84423828 70.90039062 C-10.58575177 69.8328754 -14.3485333 68.87262293 -18.12109375 67.921875 C-25.75913895 65.99148682 -33.38219807 64.00880143 -41 62 C-40.38444428 58.87760336 -39.36225654 56.76212965 -37.55078125 54.15625 C-37.03966797 53.41503906 -36.52855469 52.67382812 -36.00195312 51.91015625 C-35.44443359 51.11480469 -34.88691406 50.31945312 -34.3125 49.5 C-33.73306641 48.66339844 -33.15363281 47.82679688 -32.55664062 46.96484375 C-30.7113807 44.30497392 -28.85703613 41.65165902 -27 39 C-26.41395996 38.16210938 -25.82791992 37.32421875 -25.22412109 36.4609375 C-22.90653616 33.14843302 -20.58764021 29.83686446 -18.2644043 26.52832031 C-12.09796775 17.73913772 -6.04145785 8.87538454 0 0 Z " fill="#79C5FE" transform="translate(128,153)"/>
<path d="M0 0 C7.0597161 8.72185979 13.42344534 17.96955906 19.8125 27.1875 C20.50174561 28.17983643 21.19099121 29.17217285 21.90112305 30.19458008 C26.50205296 36.82383666 31.08606795 43.46463106 35.63793945 50.12768555 C37.29839653 52.55369306 38.95425306 54.94289108 40.79296875 57.23828125 C42 59 42 59 42 62 C35.38315379 63.74061916 28.76256787 65.46640382 22.13916016 67.18188477 C19.88599022 67.76733239 17.63370137 68.35618187 15.38232422 68.94848633 C12.14776099 69.79882435 8.91023584 70.63691423 5.671875 71.47265625 C4.16074127 71.87412621 4.16074127 71.87412621 2.61907959 72.28370667 C1.67840637 72.52403122 0.73773315 72.76435577 -0.23144531 73.01196289 C-1.05751282 73.22736221 -1.88358032 73.44276154 -2.73468018 73.66468811 C-6.89559847 74.28058586 -9.44785189 72.91249132 -12.73046875 70.48046875 C-13.44211182 69.9589624 -14.15375488 69.43745605 -14.88696289 68.90014648 C-16.02572876 68.05238647 -16.02572876 68.05238647 -17.1875 67.1875 C-18.81450179 65.99397009 -20.44212033 64.80128052 -22.0703125 63.609375 C-22.8943457 63.00416016 -23.71837891 62.39894531 -24.56738281 61.77539062 C-28.20360147 59.12157869 -31.87970019 56.52610031 -35.5625 53.9375 C-36.25448486 53.45015381 -36.94646973 52.96280762 -37.65942383 52.46069336 C-39.77236937 50.97296966 -41.88613863 49.48642207 -44 48 C-53.38211703 41.3988408 -62.75323979 34.79027747 -72 28 C-69.4091705 25.4091705 -67.51088603 25.26284802 -63.9375 24.484375 C-62.04813721 24.06744385 -62.04813721 24.06744385 -60.12060547 23.64208984 C-59.44882263 23.49713074 -58.77703979 23.35217163 -58.0848999 23.20281982 C-55.98371487 22.74646303 -53.88645205 22.27494156 -51.78955078 21.79931641 C-45.08436105 20.28635494 -38.38741902 18.86228455 -31.6171875 17.6640625 C-17.45418806 15.03100381 -8.67553209 11.83665714 0 0 Z " fill="#78C5FE" transform="translate(383,153)"/>
<path d="M0 0 C4.67279363 -0.15427667 7.58868308 0.26448648 11.42138672 2.96508789 C12.34951172 3.60704102 13.27763672 4.24899414 14.23388672 4.91040039 C15.24451172 5.65032227 16.25513672 6.39024414 17.29638672 7.15258789 C17.85068359 7.55445313 18.40498047 7.95631836 18.97607422 8.37036133 C22.09259459 10.6298386 25.19271618 12.91041328 28.28466797 15.20336914 C32.34938618 18.2072926 36.47246615 21.1235367 40.60888672 24.02758789 C46.79268153 28.3787763 52.96383855 32.74679836 59.10888672 37.15258789 C60.24741089 37.96252197 60.24741089 37.96252197 61.40893555 38.78881836 C64.98729217 41.36231898 68.30415594 43.88548027 71.29638672 47.15258789 C64.43552062 49.57490822 57.58334941 51.33071511 50.48388672 52.90258789 C39.33912164 55.41369709 28.26215061 58.12604942 17.19750977 60.96801758 C16.07642822 61.25322266 14.95534668 61.53842773 13.80029297 61.83227539 C12.31251343 62.21488525 12.31251343 62.21488525 10.79467773 62.60522461 C8.29638672 63.15258789 8.29638672 63.15258789 5.29638672 63.15258789 C3.89404297 61.85961914 3.89404297 61.85961914 2.35888672 59.96508789 C-0.81464041 56.17689867 -4.09038347 52.52122571 -7.45361328 48.90258789 C-8.4967257 47.77641887 -9.53969318 46.65011557 -10.58251953 45.52368164 C-11.10217285 44.96277832 -11.62182617 44.401875 -12.15722656 43.82397461 C-18.59180299 36.86926823 -24.97667409 29.87079487 -31.29345703 22.80883789 C-33.1436601 20.76971619 -35.00969618 18.75259389 -36.89501953 16.74633789 C-37.44295166 16.16102295 -37.99088379 15.57570801 -38.55541992 14.97265625 C-39.63519614 13.8212255 -40.71888689 12.67345035 -41.80688477 11.52978516 C-44.09881159 9.08168445 -45.62970827 7.37430291 -46.70361328 4.15258789 C-36.78587648 2.54245446 -26.84855853 1.7210489 -16.82861328 1.02758789 C-14.95749878 0.89634521 -14.95749878 0.89634521 -13.04858398 0.76245117 C-8.70059947 0.47334176 -4.35051281 0.24553644 0 0 Z " fill="#8ECDFE" transform="translate(303.70361328125,179.847412109375)"/>
<path d="M0 0 C1.2679541 0.06562134 1.2679541 0.06562134 2.56152344 0.13256836 C16.71327268 0.94275477 30.82915826 2.39987691 44.9375 3.75 C43.51317584 6.72816718 42.15846735 8.72931682 39.75 11 C37.30151744 13.37823921 34.97678947 15.78799459 32.75 18.375 C29.63414878 21.98576272 26.42759931 25.50120705 23.1875 29 C22.67606445 29.55260498 22.16462891 30.10520996 21.63769531 30.67456055 C20.59244921 31.80353733 19.54703812 32.93236137 18.50146484 34.06103516 C15.99672901 36.76596217 13.49627071 39.47475985 11 42.1875 C9.71802734 43.57775391 9.71802734 43.57775391 8.41015625 44.99609375 C6.61362025 46.99697508 4.92371358 49.00293167 3.24609375 51.09765625 C2.48425781 51.97292969 1.72242188 52.84820312 0.9375 53.75 C0.2775 53.75 -0.3825 53.75 -1.0625 53.75 C-1.31 54.306875 -1.5575 54.86375 -1.8125 55.4375 C-3.27856015 58.14971127 -5.09239471 60.38587365 -7.0625 62.75 C-17.00175761 61.35463727 -26.56564626 58.93742963 -36.25 56.375 C-39.22190933 55.59348229 -42.19477002 54.81565857 -45.16796875 54.0390625 C-46.25898392 53.75219574 -46.25898392 53.75219574 -47.37203979 53.45953369 C-51.20050062 52.46104409 -55.03437761 51.51465085 -58.89306641 50.63964844 C-59.67410233 50.46202972 -60.45513824 50.28441101 -61.25984192 50.10140991 C-62.75450688 49.76510308 -64.25063735 49.43522588 -65.74833679 49.11270142 C-70.84396087 47.96853913 -70.84396087 47.96853913 -73.0625 45.75 C-71.9609375 44.95442708 -70.859375 44.15885417 -69.7578125 43.36328125 C-69.03843506 42.8437085 -68.31905762 42.32413574 -67.57788086 41.78881836 C-65.96159269 40.62154498 -64.34521661 39.45439331 -62.72875977 38.28735352 C-58.63616904 35.3323616 -54.54471236 32.37584311 -50.45703125 29.4140625 C-40.98739192 22.55627414 -31.47363443 15.76550361 -21.90576172 9.04541016 C-20.21812576 7.8593709 -18.53277356 6.67008377 -16.84765625 5.48046875 C-15.49994141 4.53107422 -15.49994141 4.53107422 -14.125 3.5625 C-13.37347656 3.03269531 -12.62195313 2.50289062 -11.84765625 1.95703125 C-7.90578769 -0.70825844 -4.59700923 -0.25258796 0 0 Z " fill="#8ECDFE" transform="translate(210.0625,180.25)"/>
<path d="M0 0 C-5.76309715 7.39154745 -11.57352776 14.73854544 -17.5 22 C-21.5497777 26.96236174 -25.55799509 31.9515812 -29.5 37 C-34.58597845 43.51229417 -39.79096139 49.9236637 -45.01171875 56.328125 C-47.35721533 59.20612454 -49.68601547 62.09655836 -52 65 C-54.85222552 68.57879245 -57.73352476 72.13262718 -60.625 75.6796875 C-65.75727452 81.976228 -70.83585467 88.30742843 -75.83520508 94.70996094 C-79.87801787 99.87460136 -84.01727279 104.95778496 -88.1640625 110.0390625 C-91.65530083 114.32451618 -95.09818888 118.64329453 -98.5 123 C-102.97585767 128.73223877 -107.54467534 134.3834083 -112.14648438 140.01489258 C-116.27895525 145.0823535 -120.33142985 150.20762089 -124.31054688 155.39648438 C-127.00401872 158.87152527 -129.84053657 161.95901645 -133 165 C-132.39811548 160.85547337 -131.00752942 157.82933009 -128.96484375 154.1875 C-128.32844971 153.04434326 -127.69205566 151.90118652 -127.03637695 150.72338867 C-126.33679087 149.48223681 -125.63716411 148.24110788 -124.9375 147 C-124.21436213 145.70523906 -123.49196222 144.41006572 -122.77026367 143.11450195 C-121.26805188 140.4192569 -119.7626708 137.72582076 -118.25488281 135.03369141 C-115.08466527 129.36875103 -111.94728523 123.68574029 -108.81268311 118.0010376 C-107.80897352 116.18110577 -106.80419118 114.36176914 -105.79931641 112.54248047 C-101.59520566 104.92573595 -97.44029827 97.28339118 -93.3125 89.625 C-88.61028886 80.90263291 -83.77791487 72.26263455 -78.87866211 63.6496582 C-75.53354038 57.75400082 -72.24506679 51.83198726 -69.03051758 45.86401367 C-67.92828074 43.83232834 -66.80828545 41.8101759 -65.6706543 39.7980957 C-63.02531842 35.07198442 -60.77214676 30.62685166 -59.21484375 25.4296875 C-57.18262087 19.43188376 -55.21399315 14.84566763 -50 11 C-37.61136637 5.23920418 -23.33933015 2.88286585 -9.99005127 0.38296509 C-8.35458518 0.06823631 -6.72884077 -0.29660382 -5.10693359 -0.67504883 C-3 -1 -3 -1 0 0 Z " fill="#309DEF" transform="translate(425,216)"/>
<path d="M0 0 C9.26032081 1.4995997 18.35902226 3.63419202 27.47314453 5.83129883 C30.02021868 6.44235053 32.57052478 7.03849385 35.12109375 7.63476562 C36.74761538 8.02512802 38.37392577 8.41637187 40 8.80859375 C40.75933838 8.9836998 41.51867676 9.15880585 42.30102539 9.33921814 C48.86721234 10.95511278 48.86721234 10.95511278 51 14 C52.0178411 15.69395089 52.9778794 17.42314892 53.8984375 19.171875 C54.45337891 20.21666016 55.00832031 21.26144531 55.58007812 22.33789062 C56.17240234 23.46388672 56.76472656 24.58988281 57.375 25.75 C58.639452 28.1322289 59.90889441 30.51177359 61.1796875 32.890625 C61.50076477 33.49229492 61.82184204 34.09396484 62.15264893 34.71386719 C65.17600552 40.36270504 68.32263979 45.93680153 71.5 51.5 C76.80839213 60.81221381 81.92229575 70.21896003 86.98486328 79.66674805 C91.01287817 87.18043719 95.10919012 94.65058036 99.265625 102.09375 C103.42741032 109.54844564 107.54271675 117.02901826 111.65966797 124.50854492 C114.9032804 130.39937107 118.15436903 136.28555073 121.43783569 142.15428162 C122.93507663 144.83127486 124.42775121 147.51080118 125.92010498 150.19052124 C126.63661357 151.47404476 127.35538468 152.75630803 128.07647705 154.03726196 C129.07750761 155.81592201 130.07020879 157.59926214 131.0625 159.3828125 C131.91521484 160.90479248 131.91521484 160.90479248 132.78515625 162.45751953 C134 165 134 165 134 168 C127.55662731 160.60080413 121.23804477 153.14235568 115.2175293 145.39404297 C111.70556331 140.87874754 108.11852249 136.43025803 104.5 132 C99.99215111 126.47681024 95.55156935 120.90815021 91.1640625 115.2890625 C87.66223753 110.81563292 84.09188836 106.40132798 80.5 102 C75.99240027 96.47660315 71.55157358 90.90815564 67.1640625 85.2890625 C63.66223753 80.81563292 60.09188836 76.40132798 56.5 72 C52.45024041 67.03761852 48.44214704 62.04831033 44.5 57 C40.59262814 51.99941808 36.6308488 47.0470675 32.625 42.125 C31.80902344 41.12231079 31.80902344 41.12231079 30.9765625 40.09936523 C28.23749668 36.73730729 25.49236761 33.38031439 22.7421875 30.02734375 C16.95041513 22.9527656 11.2538406 15.81632875 5.6875 8.5625 C5.11773437 7.82201416 4.54796875 7.08152832 3.9609375 6.31860352 C3.44144531 5.63725342 2.92195313 4.95590332 2.38671875 4.25390625 C1.69388794 3.34620483 1.69388794 3.34620483 0.98706055 2.42016602 C0 1 0 1 0 0 Z " fill="#309EEF" transform="translate(87,215)"/>
<path d="M0 0 C10.24414707 1.33386117 20.21075483 3.52832707 30.25878906 5.88623047 C32.8901004 6.50354259 35.52300087 7.11366855 38.15625 7.72265625 C39.85165857 8.11677447 41.54697448 8.51129151 43.2421875 8.90625 C44.01835419 9.08651733 44.79452087 9.26678467 45.59420776 9.45251465 C50.10420766 10.51282262 54.55542785 11.69169201 59 13 C54.87129682 17.49275717 50.25918843 20.70174261 45.1875 24.0625 C38.99961704 28.2240525 32.92546367 32.47240777 27 37 C21.05416714 41.53102489 14.98493851 45.84521799 8.8125 50.0625 C8.01005859 50.61099609 7.20761719 51.15949219 6.38085938 51.72460938 C2.64387441 54.26144114 -1.11304787 56.69657399 -5 59 C-5.34814236 48.33985606 -4.39870218 37.89082515 -3.34594727 27.29467773 C-3.06002957 24.41259784 -2.78420446 21.52967782 -2.50976562 18.64648438 C-2.33131211 16.80463093 -2.15229635 14.96283185 -1.97265625 13.12109375 C-1.89032242 12.26382187 -1.80798859 11.40654999 -1.72315979 10.52330017 C-1.64315231 9.7246907 -1.56314484 8.92608124 -1.48071289 8.10327148 C-1.41187393 7.40523911 -1.34303497 6.70720673 -1.27210999 5.98802185 C-0.9917165 3.93948115 -0.53775471 1.99508236 0 0 Z " fill="#47A9F1" transform="translate(142,167)"/>
<path d="M0 0 C1.54484577 12.81850483 3.04232904 25.63876691 4.1875 38.5 C4.27112793 39.41080322 4.35475586 40.32160645 4.44091797 41.26000977 C4.94942632 47.18659263 5.09342247 53.05290115 5 59 C-3.42993572 53.8937614 -11.35838268 48.19094136 -19.3203125 42.39453125 C-23.68365337 39.21979976 -28.08427026 36.10128476 -32.5 33 C-41.39250116 26.74846138 -50.20131515 20.3826589 -59 14 C-56.39156647 11.39156647 -54.42903785 11.2397836 -50.83203125 10.44921875 C-49.55618164 10.16506104 -48.28033203 9.88090332 -46.96582031 9.58813477 C-45.58143357 9.2876772 -44.19699233 8.98747065 -42.8125 8.6875 C-41.40840005 8.37810579 -40.00442924 8.06812498 -38.60058594 7.75756836 C-35.76344856 7.13131368 -32.92538313 6.50955237 -30.08642578 5.89160156 C-26.36644244 5.08152861 -22.6496988 4.25738729 -18.93359375 3.4296875 C-16.87250312 2.97347335 -14.81131204 2.51771271 -12.75 2.0625 C-11.79971924 1.85133545 -10.84943848 1.6401709 -9.87036133 1.42260742 C-9.00048584 1.23287354 -8.13061035 1.04313965 -7.234375 0.84765625 C-6.10854004 0.6002771 -6.10854004 0.6002771 -4.95996094 0.34790039 C-3 0 -3 0 0 0 Z " fill="#47A9F1" transform="translate(370,167)"/>
<path d="M0 0 C0 20.46 0 40.92 0 62 C-7.87717481 55.24813587 -7.87717481 55.24813587 -10.4296875 52.484375 C-10.99260498 51.87827393 -11.55552246 51.27217285 -12.13549805 50.64770508 C-12.70953369 50.0214624 -13.28356934 49.39521973 -13.875 48.75 C-14.48577393 48.08959717 -15.09654785 47.42919434 -15.72583008 46.7487793 C-19.78724461 42.3483324 -23.80914375 37.91306475 -27.80078125 33.44921875 C-30.30735931 30.65770109 -32.8384915 27.8892748 -35.375 25.125 C-35.8294751 24.6285498 -36.2839502 24.13209961 -36.75219727 23.62060547 C-39.19094091 20.9593002 -41.64184469 18.31043206 -44.109375 15.67578125 C-44.6142041 15.13356934 -45.1190332 14.59135742 -45.63916016 14.03271484 C-46.60887548 12.99161725 -47.582351 11.95400576 -48.56005859 10.92041016 C-50.71347332 8.60165387 -51.98464509 7.04606474 -53 4 C-43.0822632 2.38986656 -33.14494525 1.56846101 -23.125 0.875 C-21.2538855 0.74375732 -21.2538855 0.74375732 -19.3449707 0.60986328 C-12.85262961 0.17816972 -6.52856786 0 0 0 Z " fill="#98D1FF" transform="translate(310,180)"/>
<path d="M0 0 C12.64266413 0.63213321 25.16650197 1.35635436 37.75 2.5625 C39.24866113 2.70286733 40.7473591 2.84284183 42.24609375 2.98242188 C45.83116108 3.31713373 49.41571536 3.65699545 53 4 C51.57567584 6.97816718 50.22096735 8.97931682 47.8125 11.25 C45.36401744 13.62823921 43.03928947 16.03799459 40.8125 18.625 C37.69664878 22.23576272 34.49009931 25.75120705 31.25 29.25 C30.73856445 29.80260498 30.22712891 30.35520996 29.70019531 30.92456055 C28.65494921 32.05353733 27.60953812 33.18236137 26.56396484 34.31103516 C24.05922901 37.01596217 21.55877071 39.72475985 19.0625 42.4375 C18.20785156 43.36433594 17.35320312 44.29117188 16.47265625 45.24609375 C14.67612025 47.24697508 12.98621358 49.25293167 11.30859375 51.34765625 C10.54675781 52.22292969 9.78492188 53.09820312 9 54 C8.34 54 7.68 54 7 54 C6.773125 54.5775 6.54625 55.155 6.3125 55.75 C5 58 5 58 0 62 C0 41.54 0 21.08 0 0 Z " fill="#98D0FF" transform="translate(202,180)"/>
<path d="M0 0 C-1.44163142 4.4389216 -3.88745664 7.50335751 -6.9375 10.9375 C-11.15641644 15.7960975 -15.22898202 20.73916333 -19.1875 25.8125 C-19.66888428 26.42923584 -20.15026855 27.04597168 -20.64624023 27.68139648 C-21.76616705 29.11937022 -22.8834032 30.55943895 -24 32 C-28.00153279 30.4216692 -30.23177204 27.80175215 -33.0625 24.625 C-34.02959076 23.54525292 -34.99705012 22.46583588 -35.96484375 21.38671875 C-36.46097168 20.83032715 -36.95709961 20.27393555 -37.46826172 19.70068359 C-39.0029305 17.99674627 -40.56071485 16.31762823 -42.12890625 14.64453125 C-42.63091553 14.10683105 -43.1329248 13.56913086 -43.65014648 13.01513672 C-44.61661733 11.98131209 -45.58608113 10.9502755 -46.55883789 9.92236328 C-48.71215549 7.60267282 -49.98442561 6.04672318 -51 3 C-33.94941788 0.50892205 -17.21462665 -0.16167472 0 0 Z " fill="#ACDBFF" transform="translate(308,181)"/>
<path d="M0 0 C17.4484341 -0.61422128 34.66473233 1.24987184 52 3 C50.57567584 5.97816718 49.22096735 7.97931682 46.8125 10.25 C43.66893061 13.30282718 40.77098301 16.48378621 37.91015625 19.80078125 C34.33261986 23.91970352 30.65777668 27.95239224 27 32 C22.99423264 30.66474421 21.44281864 28.00680395 19 24.75 C14.67691975 19.09949788 10.21285374 13.62053281 5.52929688 8.26464844 C3.26615191 5.64336835 1.35571645 3.20163547 0 0 Z " fill="#ACDBFF" transform="translate(203,181)"/>
<path d="M0 0 C3.7658106 3.18031122 7.48438989 6.35141825 10.9375 9.875 C11.81728516 10.76832031 11.81728516 10.76832031 12.71484375 11.6796875 C13.35099609 12.33324219 13.35099609 12.33324219 14 13 C6.08194108 21.00443774 -2.23305414 28.47963225 -11 35.5390625 C-15.30748264 39.07254435 -19.50121688 42.73282579 -23.69848633 46.39599609 C-24.29943115 46.92016113 -24.90037598 47.44432617 -25.51953125 47.984375 C-26.39327393 48.74681519 -26.39327393 48.74681519 -27.28466797 49.5246582 C-28.93919565 50.94770272 -30.61892271 52.33385767 -32.30859375 53.71484375 C-35.0900014 55.92903016 -35.0900014 55.92903016 -37.25 58.8125 C-37.8275 59.534375 -38.405 60.25625 -39 61 C-39.66 61 -40.32 61 -41 61 C-39.54805252 56.82756144 -37.48758796 53.67634837 -34.875 50.125 C-33.97116796 48.88259176 -33.06894152 47.63901454 -32.16796875 46.39453125 C-31.66700684 45.70311035 -31.16604492 45.01168945 -30.64990234 44.29931641 C-27.44805725 39.83720083 -24.32091138 35.32280393 -21.1875 30.8125 C-20.50929199 29.83676025 -19.83108398 28.86102051 -19.13232422 27.85571289 C-12.70906659 18.60180259 -6.34174982 9.30991287 0 0 Z " fill="#47A7EE" transform="translate(128,153)"/>
<path d="M0 0 C7.05965184 8.72178041 13.42418576 17.96913967 19.8125 27.1875 C20.50029541 28.17911133 21.18809082 29.17072266 21.89672852 30.19238281 C23.27908238 32.18627083 24.66084988 34.18056552 26.04199219 36.17529297 C27.83860477 38.76716424 29.64097688 41.35490867 31.4453125 43.94140625 C32.44291691 45.37745929 33.44032755 46.81364698 34.4375 48.25 C35.11872925 49.22296021 35.11872925 49.22296021 35.8137207 50.21557617 C37.60263737 52.80229564 38.99928543 54.99785628 40 58 C36.55220914 56.49993609 34.17639467 54.49590738 31.4375 51.9375 C27.97439841 48.76214883 24.46804744 45.70171816 20.8125 42.75 C15.68356738 38.59766245 10.69676372 34.30077571 5.72167969 29.96704102 C-0.46567216 24.5812541 -6.723584 19.28150352 -13 14 C-8.88380164 9.08064098 -4.59589638 4.47352044 0 0 Z " fill="#47A7EE" transform="translate(383,153)"/>
</svg>
